<?xml version="1.0" encoding="utf-8"?>
<!-- Generator: Adobe Illustrator 24.3.0, SVG Export Plug-In . SVG Version: 6.00 Build 0)  -->
<svg version="1.1" id="Layer_1" xmlns="http://www.w3.org/2000/svg" xmlns:xlink="http://www.w3.org/1999/xlink" x="0px" y="0px"
	 viewBox="0 0 16 16" style="enable-background:new 0 0 16 16;" xml:space="preserve">
<style type="text/css">
	.st0{fill:#FAFAFA;}
</style>
<path class="st0" d="M1.7,11.4H4l4.8,4.4c0.2,0.2,0.5,0.2,0.7,0c0.1-0.1,0.1-0.2,0.1-0.3V1.3c0-0.3-0.2-0.5-0.5-0.5
	C9,0.8,8.9,0.9,8.8,1L4,5.4H1.7c-0.5,0-0.8,0.4-0.8,0.8c0,0,0,0,0,0v4.3C0.8,11,1.2,11.4,1.7,11.4C1.7,11.4,1.7,11.4,1.7,11.4z"/>
</svg>
