<?xml version="1.0" encoding="utf-8"?>
<!-- Generator: Adobe Illustrator 24.3.0, SVG Export Plug-In . SVG Version: 6.00 Build 0)  -->
<svg version="1.1" id="Layer_1" xmlns="http://www.w3.org/2000/svg" xmlns:xlink="http://www.w3.org/1999/xlink" x="0px" y="0px"
	 viewBox="0 0 16 16" style="enable-background:new 0 0 16 16;" xml:space="preserve">
<style type="text/css">
	.st0{fill:#505050;}
</style>
<path class="st0" d="M1.7,11.4H4l4.8,4.4C9,16,9.3,16,9.5,15.8c0.1-0.1,0.1-0.2,0.1-0.3V1.3c0-0.3-0.2-0.5-0.5-0.5
	C9,0.8,8.9,0.9,8.8,1L4,5.4H1.7c-0.5,0-0.8,0.4-0.8,0.8l0,0v4.3C0.8,11,1.2,11.4,1.7,11.4L1.7,11.4z"/>
<path class="st0" d="M14.2,8.4l1.7-1.7C16,6.6,16,6.2,15.9,6l0,0l0,0c-0.2-0.2-0.5-0.2-0.7,0l0,0l-1.7,1.7L11.8,6
	c-0.2-0.2-0.5-0.2-0.7,0s-0.2,0.5,0,0.7l1.7,1.7l-1.7,1.7c-0.2,0.2-0.2,0.5,0,0.7s0.5,0.2,0.7,0l0,0l1.7-1.7l1.7,1.7
	c0.2,0.2,0.5,0.2,0.7,0l0,0l0,0c0.2-0.2,0.2-0.5,0-0.7l0,0L14.2,8.4z"/>
</svg>
