<?xml version="1.0" encoding="utf-8"?>
<!-- Generator: Adobe Illustrator 24.3.0, SVG Export Plug-In . SVG Version: 6.00 Build 0)  -->
<svg version="1.1" id="Capa_1" xmlns="http://www.w3.org/2000/svg" xmlns:xlink="http://www.w3.org/1999/xlink" x="0px" y="0px"
	 viewBox="0 0 16 16" style="enable-background:new 0 0 16 16;" xml:space="preserve">
<style type="text/css">
	.st0{fill:#FFFFFF;}
	.st1{fill:#505050;}
</style>
<g>
	<g>
		<g>
			<g>
				<path class="st0" d="M14.1,4.4C13.7,1.2,10.5-0.4,7.2,0C4.5,0.4,1.9,2.5,1.8,5.6C1.7,7.4,2.2,8.9,4,9.3c0.8-1.4-0.2-1.7-0.4-2.7
					c-0.7-4.1,4.7-6.8,7.5-4c1.9,2,0.7,8-2.5,7.4c-3-0.6,1.5-5.4-0.9-6.3c-1.9-0.8-3,2.3-2,3.9C5.1,10.2,4,12.7,4.4,16
					c1.5-1.1,2-3.2,2.5-5.4c0.8,0.5,1.2,0.9,2.1,1C12.6,11.9,14.6,8,14.1,4.4z"/>
			</g>
		</g>
		<g>
			<g>
				<path class="st1" d="M14.1,4.4C13.7,1.2,10.5-0.4,7.2,0C4.5,0.4,1.9,2.5,1.8,5.6C1.7,7.4,2.2,8.9,4,9.3c0.8-1.4-0.2-1.7-0.4-2.7
					c-0.7-4.1,4.7-6.8,7.5-4c1.9,2,0.7,8-2.5,7.4c-3-0.6,1.5-5.4-0.9-6.3c-1.9-0.8-3,2.3-2,3.9C5.1,10.2,4,12.7,4.4,16
					c1.5-1.1,2-3.2,2.5-5.4c0.8,0.5,1.2,0.9,2.1,1C12.6,11.9,14.6,8,14.1,4.4z"/>
			</g>
		</g>
	</g>
	<g>
		<g>
			<g>
				<path class="st1" d="M14.1,4.4C13.7,1.2,10.5-0.4,7.2,0C4.5,0.4,1.9,2.5,1.8,5.6C1.7,7.4,2.2,8.9,4,9.3c0.8-1.4-0.2-1.7-0.4-2.7
					c-0.7-4.1,4.7-6.8,7.5-4c1.9,2,0.7,8-2.5,7.4c-3-0.6,1.5-5.4-0.9-6.3c-1.9-0.8-3,2.3-2,3.9C5.1,10.2,4,12.7,4.4,16
					c1.5-1.1,2-3.2,2.5-5.4c0.8,0.5,1.2,0.9,2.1,1C12.6,11.9,14.6,8,14.1,4.4z"/>
			</g>
		</g>
		<g>
			<g>
				<path class="st1" d="M14.1,4.4C13.7,1.2,10.5-0.4,7.2,0C4.5,0.4,1.9,2.5,1.8,5.6C1.7,7.4,2.2,8.9,4,9.3c0.8-1.4-0.2-1.7-0.4-2.7
					c-0.7-4.1,4.7-6.8,7.5-4c1.9,2,0.7,8-2.5,7.4c-3-0.6,1.5-5.4-0.9-6.3c-1.9-0.8-3,2.3-2,3.9C5.1,10.2,4,12.7,4.4,16
					c1.5-1.1,2-3.2,2.5-5.4c0.8,0.5,1.2,0.9,2.1,1C12.6,11.9,14.6,8,14.1,4.4z"/>
			</g>
		</g>
	</g>
</g>
</svg>
