<?xml version="1.0" encoding="utf-8"?>
<!-- Generator: Adobe Illustrator 24.3.0, SVG Export Plug-In . SVG Version: 6.00 Build 0)  -->
<svg version="1.1" id="Layer_1" xmlns="http://www.w3.org/2000/svg" xmlns:xlink="http://www.w3.org/1999/xlink" x="0px" y="0px"
	 viewBox="0 0 512 512" style="enable-background:new 0 0 512 512;" xml:space="preserve">
<style type="text/css">
	.st0{fill:#505050;}
</style>
<g id="icomoon-ignore">
</g>
<path class="st0" d="M128,32h256v64H128V32z"/>
<path class="st0" d="M480,128H32c-17.6,0-32,14.4-32,32v160c0,17.6,14.4,32,32,32h96v128h256V352h96c17.6,0,32-14.4,32-32V160
	C512,142.4,497.6,128,480,128z M64,224c-17.7,0-32-14.3-32-32s14.3-32,32-32s32,14.3,32,32S81.7,224,64,224z M352,448H160V288h192
	V448z"/>
</svg>
